<?xml version="1.0"?>
<svg xmlns="http://www.w3.org/2000/svg" height="512px" viewBox="0 0 480 480.02574" width="512px"><g><path d="m328.011719 160.027344h-64c-4.417969 0-8 3.582031-8 8v96c0 4.417968 3.582031 8 8 8h64c4.417969 0 8-3.582032 8-8v-96c0-4.417969-3.582031-8-8-8zm-8 48h-16v-32h16zm-32-32v32h-16v-32zm-16 48h16v32h-16zm32 32v-32h16v32zm0 0" data-original="#000000" class="active-path" data-old_color="#000000" fill="#FFA200"/><path d="m424.011719 160.027344h-64c-4.417969 0-8 3.582031-8 8v96c0 4.417968 3.582031 8 8 8h64c4.417969 0 8-3.582032 8-8v-96c0-4.417969-3.582031-8-8-8zm-8 48h-16v-32h16zm-32-32v32h-16v-32zm-16 48h16v32h-16zm32 32v-32h16v32zm0 0" data-original="#000000" class="active-path" data-old_color="#000000" fill="#FFA200"/><path d="m328.011719 304.027344h-64c-4.417969 0-8 3.582031-8 8v96c0 4.417968 3.582031 8 8 8h64c4.417969 0 8-3.582032 8-8v-96c0-4.417969-3.582031-8-8-8zm-8 48h-16v-32h16zm-32-32v32h-16v-32zm-16 48h16v32h-16zm32 32v-32h16v32zm0 0" data-original="#000000" class="active-path" data-old_color="#000000" fill="#FFA200"/><path d="m424.011719 304.027344h-64c-4.417969 0-8 3.582031-8 8v96c0 4.417968 3.582031 8 8 8h64c4.417969 0 8-3.582032 8-8v-96c0-4.417969-3.582031-8-8-8zm-8 48h-16v-32h16zm-32-32v32h-16v-32zm-16 48h16v32h-16zm32 32v-32h16v32zm0 0" data-original="#000000" class="active-path" data-old_color="#000000" fill="#FFA200"/><path d="m472.011719 432.027344h-8v-293.601563l14.65625-21.984375c2.292969-3.429687 1.601562-8.042968-1.597657-10.648437l-128-104c-2.941406-2.390625-7.15625-2.390625-10.097656 0l-42.960937 34.929687v-28.695312c0-4.417969-3.582031-8.0000002-8-8.0000002h-96c-4.417969 0-8 3.5820312-8 8.0000002v31.664062c-17.394531 4.835938-34.074219 11.957032-49.597657 21.175782l-20.503906-20.496094c-3.125-3.125-8.1875-3.125-11.3125 0l-67.921875 67.917968c-1.5 1.5-2.34375 3.539063-2.34375 5.660157 0 2.125.84375 4.160156 2.34375 5.660156l22.136719 22.015625c-8.578125 15.886719-15.03125 32.832031-19.199219 50.402344h-29.601562c-4.417969 0-8.0000002 3.582031-8.0000002 8v96c0 4.417968 3.5820312 8 8.0000002 8h34.097656c5.265625 16.382812 12.570313 32.046875 21.734375 46.613281l-23.488281 23.488281c-3.121094 3.125-3.121094 8.1875 0 11.3125l67.921875 67.921875c3.125 3.121094 8.1875 3.121094 11.3125 0l27.367187-27.371093c19.699219 8.621093 40.132813 15.460937 61.054688 20.433593v25.601563c0 4.417968 3.582031 8 8 8h256c4.417969 0 8-3.582032 8-8v-32c0-4.417969-3.582031-8-8-8zm-232 0v-300.113282l104-81.710937 104 81.710937v300.113282zm-30.65625-315.5625 14.65625 21.960937v244.601563c-72.347657-8.039063-127.292969-68.855469-127.96875-141.648438-.675781-72.792968 53.125-134.617187 125.3125-144l-10.398438 8.4375c-3.199219 2.605469-3.894531 7.21875-1.601562 10.648438zm134.65625-98.128906 117.304687 95.289062-3.664062 5.496094-108.695313-85.382813c-2.902343-2.28125-6.988281-2.28125-9.886719 0l-108.65625 85.398438-3.664062-5.496094zm-204.292969 392.273437-25.785156 25.785156-56.609375-56.609375 22.402343-22.398437c2.710938-2.714844 3.117188-6.96875.964844-10.144531-11.066406-16.40625-19.5-34.445313-25-53.457032-.992187-3.414062-4.121094-5.757812-7.679687-5.757812h-32v-80h28c3.804687 0 7.082031-2.675782 7.839843-6.402344 4.121094-20.171875 11.484376-39.539062 21.808594-57.351562 1.808594-3.136719 1.285156-7.097657-1.277344-9.65625l-20.730468-20.679688 56.601562-56.601562 19.304688 19.304687c2.652344 2.652344 6.789062 3.101563 9.949218 1.089844 17.367188-11.054688 36.425782-19.195313 56.417969-24.105469 3.570313-.878906 6.082031-4.082031 6.085938-7.757812v-29.839844h80v33.695312l-37.351563 30.34375c-.871094-.039062-1.75-.039062-2.648437-.039062-85.25-.058594-155.558594 66.769531-159.828125 151.917968-4.273438 85.144532 59 158.671876 143.828125 167.144532v32.9375h-7.125c-23.355469-5.066406-46.074219-12.71875-67.730469-22.816406-3.109375-1.667969-6.945312-1.097657-9.4375 1.398437zm324.292969 53.417969h-240v-16h240zm0 0" data-original="#000000" class="active-path" data-old_color="#000000" fill="#FFA200"/></g> </svg>
